<?xml version="1.0" encoding="UTF-8"?>
<svg version="1.1" xmlns="http://www.w3.org/2000/svg" width="36" height="23">
<path d="M0 0 C5.75 -0.125 5.75 -0.125 8 1 C8 1.99 8 2.98 8 4 C9.32 4 10.64 4 12 4 C15.0443995 4.2688668 18.08431065 4.57103645 21.125 4.87890625 C23.71889319 4.9881599 25.55303991 4.7940856 28 4 C28 4.99 28 5.98 28 7 C27.34 7.66 26.68 8.32 26 9 C27.98 9 29.96 9 32 9 C33 12 33 12 32 15 C29.9375 15.6875 29.9375 15.6875 28 16 C28 17.32 28 18.64 28 20 C20.97381022 21.5056121 14.10547081 20.64057643 7 20 C7.33 18.68 7.66 17.36 8 16 C9.32 15.67 10.64 15.34 12 15 C11.67 14.34 11.34 13.68 11 13 C10.01 13.66 9.02 14.32 8 15 C6.0625 15 6.0625 15 4 14 C1.01381044 10.5990619 -0.25 8.09394016 -0.25 3.625 C-0.1675 2.42875 -0.085 1.2325 0 0 Z M13 14 C13.66 14.66 14.32 15.32 15 16 C15.99 15.67 16.98 15.34 18 15 C16.35 14.67 14.7 14.34 13 14 Z M22 14 C21.67 14.66 21.34 15.32 21 16 C21.66 16 22.32 16 23 16 C22.67 15.34 22.34 14.68 22 14 Z " fill="#349FE0" transform="translate(1,0)"/>
<path d="M0 0 C4.33333333 0 8.66666667 0 13 0 C12.67 1.98 12.34 3.96 12 6 C4.97381022 7.5056121 -1.89452919 6.64057643 -9 6 C-8.67 4.68 -8.34 3.36 -8 2 C-5.36 1.67 -2.72 1.34 0 1 C0 0.67 0 0.34 0 0 Z " fill="#8AD3E9" transform="translate(17,14)"/>
<path d="M0 0 C5.75 -0.125 5.75 -0.125 8 1 C8 1.99 8 2.98 8 4 C8.99 4.33 9.98 4.66 11 5 C12.1875 7.0625 12.1875 7.0625 13 9 C12.01 9.495 12.01 9.495 11 10 C11 9.34 11 8.68 11 8 C8.56070254 9.92576115 6.19909405 11.80090595 4 14 C0.07260562 9.09075703 -0.43177893 6.26079448 0 0 Z " fill="#59B2DE" transform="translate(1,0)"/>
<path d="M0 0 C1.22976563 0.12568359 1.22976563 0.12568359 2.484375 0.25390625 C3.56203125 0.35574219 4.6396875 0.45757813 5.75 0.5625 C6.81734375 0.66691406 7.8846875 0.77132813 8.984375 0.87890625 C11.64141204 0.98560074 13.49960572 0.81930395 16 0 C16 0.99 16 1.98 16 3 C14.68 3.33 13.36 3.66 12 4 C12 4.66 12 5.32 12 6 C10.6875 7.625 10.6875 7.625 9 9 C8.01 9 7.02 9 6 9 C5.34 8.34 4.68 7.68 4 7 C3.29875 6.54625 2.5975 6.0925 1.875 5.625 C1.25625 5.08875 0.6375 4.5525 0 4 C0 2.68 0 1.36 0 0 Z " fill="#16497D" transform="translate(13,4)"/>
<path d="M0 0 C1.670625 0.5259375 1.670625 0.5259375 3.375 1.0625 C6.80264476 2.37239331 6.80264476 2.37239331 9 1 C8.67 2.32 8.34 3.64 8 5 C7.071875 4.95875 6.14375 4.9175 5.1875 4.875 C1.84190281 4.72863661 1.84190281 4.72863661 -1 7 C-1.99 7 -2.98 7 -4 7 C-3.43628586 3.73045798 -2.50037734 2.17424117 0 0 Z " fill="#446C9F" transform="translate(10,8)"/>
<path d="M0 0 C2.875 -0.125 2.875 -0.125 6 0 C6.66 0.66 7.32 1.32 8 2 C7.01 2 6.02 2 5 2 C4.34 3.32 3.68 4.64 3 6 C2.01 5.67 1.02 5.34 0 5 C0 3.35 0 1.7 0 0 Z " fill="#EBEBBE" transform="translate(1,0)"/>
<path d="M0 0 C0 0.99 0 1.98 0 3 C-2.35438733 4.42944945 -3.48032433 5.08661261 -6.25 4.625 C-6.8275 4.41875 -7.405 4.2125 -8 4 C-8 3.01 -8 2.02 -8 1 C-5.23735711 0.40267181 -2.83967231 0 0 0 Z " fill="#060F7A" transform="translate(29,4)"/>
<path d="M0 0 C0.99 0.33 1.98 0.66 3 1 C2.67 1.99 2.34 2.98 2 4 C1.01 4.33 0.02 4.66 -1 5 C-1.33 6.65 -1.66 8.3 -2 10 C-5 6.25 -5 6.25 -5 4 C-4.360625 3.71125 -3.72125 3.4225 -3.0625 3.125 C-0.84793921 2.17176549 -0.84793921 2.17176549 0 0 Z " fill="#AEBAC6" transform="translate(6,2)"/>
<path d="M0 0 C2.475 0.99 2.475 0.99 5 2 C5 2.66 5 3.32 5 4 C2.36 4.66 -0.28 5.32 -3 6 C-2.67 5.01 -2.34 4.02 -2 3 C-1.01 3 -0.02 3 1 3 C0.67 2.01 0.34 1.02 0 0 Z " fill="#6EAACB" transform="translate(7,3)"/>
<path d="M0 0 C1.98 0 3.96 0 6 0 C6.33 0.99 6.66 1.98 7 3 C6.01 3.33 5.02 3.66 4 4 C4 3.34 4 2.68 4 2 C3.34 2 2.68 2 2 2 C1.67 2.66 1.34 3.32 1 4 C0.67 2.68 0.34 1.36 0 0 Z " fill="#2C6EB8" transform="translate(27,9)"/>
<path d="M0 0 C0.99 0.33 1.98 0.66 3 1 C2.01 1.33 1.02 1.66 0 2 C0 1.34 0 0.68 0 0 Z " fill="#1C1D7A" transform="translate(30,5)"/>
</svg>
